<svg xmlns="http://www.w3.org/2000/svg" viewBox="0 0 64 64" fill="none">
  <defs>
    <linearGradient id="shadow" x1="10" x2="54" y1="8" y2="56" gradientUnits="userSpaceOnUse">
      <stop stop-color="#EEF3FF" />
      <stop offset="1" stop-color="#F9FBFF" />
    </linearGradient>
    <linearGradient id="blue" x1="18" x2="49" y1="16" y2="45" gradientUnits="userSpaceOnUse">
      <stop stop-color="#5B8CFF" />
      <stop offset="1" stop-color="#356AE6" />
    </linearGradient>
    <linearGradient id="green" x1="17" x2="44" y1="20" y2="52" gradientUnits="userSpaceOnUse">
      <stop stop-color="#46C37B" />
      <stop offset="1" stop-color="#24A148" />
    </linearGradient>
    <linearGradient id="orange" x1="37" x2="51" y1="17" y2="31" gradientUnits="userSpaceOnUse">
      <stop stop-color="#FFD667" />
      <stop offset="1" stop-color="#F4B400" />
    </linearGradient>
  </defs>
  <rect x="4" y="4" width="56" height="56" rx="18" fill="url(#shadow)" />
  <path d="M18 17c0-2.21 1.79-4 4-4h16c6.63 0 12 5.37 12 12v21c0 2.21-1.79 4-4 4H30c-6.63 0-12-5.37-12-12V17Z" fill="url(#blue)" />
  <path d="M17 23c0-3.31 2.69-6 6-6h11c5.52 0 10 4.48 10 10v20H29c-6.63 0-12-5.37-12-12V23Z" fill="url(#green)" />
  <path d="M42 16c0-1.66 1.34-3 3-3h4c4.42 0 8 3.58 8 8v4c0 1.66-1.34 3-3 3h-4c-4.42 0-8-3.58-8-8v-4Z" fill="url(#orange)" />
  <circle cx="44.5" cy="42.5" r="4.5" fill="#EA4335" />
  <path d="M27 21.5c0-1.38 1.12-2.5 2.5-2.5h4.38c4.49 0 8.12 3.63 8.12 8.12V42.5c0 1.38-1.12 2.5-2.5 2.5h-4.38C30.63 45 27 41.37 27 36.88V21.5Z" fill="white" fill-opacity=".18" />
</svg>
